<?xml version="1.0" encoding="UTF-8" standalone="no" ?>
<!DOCTYPE svg PUBLIC "-//W3C//DTD SVG 1.1//EN" "http://www.w3.org/Graphics/SVG/1.1/DTD/svg11.dtd">
<svg xmlns="http://www.w3.org/2000/svg" xmlns:xlink="http://www.w3.org/1999/xlink" version="1.1" width="1080" height="1080" viewBox="0 0 1080 1080" xml:space="preserve">
<desc>Created with Fabric.js 5.2.4</desc>
<defs>
</defs>
<g transform="matrix(1 0 0 1 540 540)" id="1d0d60f8-c41b-4e3b-8f7c-6902b6c4417d"  >
<rect style="stroke: none; stroke-width: 1; stroke-dasharray: none; stroke-linecap: butt; stroke-dashoffset: 0; stroke-linejoin: miter; stroke-miterlimit: 4; fill: rgb(255,255,255); fill-rule: nonzero; opacity: 1;" vector-effect="non-scaling-stroke"  x="-540" y="-540" rx="0" ry="0" width="1080" height="1080" />
</g>
<g transform="matrix(1 0 0 1 540 540)" id="52f59f97-0d97-4f00-8aad-37d526110710"  >
</g>
<g transform="matrix(1 0 0 1 540 540)"  >
<g style="" vector-effect="non-scaling-stroke"   >
		<g transform="matrix(1 0 0 1 0 0)" id="Fill-1"  >
<path style="stroke: none; stroke-width: 1; stroke-dasharray: none; stroke-linecap: butt; stroke-dashoffset: 0; stroke-linejoin: miter; stroke-miterlimit: 4; fill: rgb(10,11,9); fill-rule: evenodd; opacity: 1;" vector-effect="non-scaling-stroke"  transform=" translate(-173.51, -141.33)" d="M 21.434 166.61 L 325.592 166.61 L 325.592 118.627 L 21.434 118.627 L 21.434 166.61 Z M 264.286 209.51 C 264.286 209.51 225.031 245.427 173.512 258.389 C 121.995 245.427 82.758 209.51 82.758 209.51 C 94.455 202.49 98.401 193.428 99.717 187.815 L 247.314 187.815 C 248.639 193.428 252.574 202.49 264.286 209.51 Z M 82.418 66.182 C 82.418 66.182 126.646 68.508 173.512 33.59 C 220.38 68.508 264.605 66.182 264.605 66.182 C 250.265 80.77 247.878 92.41 247.587 97.42 L 99.43 97.42 C 99.145 92.41 96.765 80.77 82.418 66.182 Z M 347.024 97.42 L 270.786 97.42 C 271.23 85.284 286.885 79.482 286.885 79.482 L 286.885 48.223 C 201.754 43.57 173.512 0.666 173.512 0.666 C 173.512 0.666 145.271 43.57 60.143 48.223 L 60.143 79.482 C 60.143 79.482 75.794 85.284 76.241 97.42 L 0 97.42 L 0 187.815 L 75.986 187.815 C 71.643 203.399 49.993 207.347 49.993 207.347 C 112.019 271.697 173.512 282 173.512 282 C 173.512 282 235.014 271.697 297.031 207.347 C 297.031 207.347 275.376 203.399 271.047 187.815 L 347.024 187.815 L 347.024 97.42 L 347.024 97.42 Z" stroke-linecap="round" />
</g>
		<g transform="matrix(1 0 0 1 133.95 65.58)" id="Fill-4"  >
<path style="stroke: none; stroke-width: 1; stroke-dasharray: none; stroke-linecap: butt; stroke-dashoffset: 0; stroke-linejoin: miter; stroke-miterlimit: 4; fill: rgb(10,11,9); fill-rule: evenodd; opacity: 1;" vector-effect="non-scaling-stroke"  transform=" translate(-307.46, -206.92)" d="M 307.468 211.792 C 304.794 211.792 302.618 209.616 302.618 206.919 C 302.618 204.245 304.794 202.064 307.468 202.064 C 310.121 202.064 312.322 204.245 312.322 206.919 C 312.322 209.616 310.121 211.792 307.468 211.792 Z M 307.468 201.387 C 304.431 201.387 301.936 203.88 301.936 206.919 C 301.936 209.979 304.431 212.447 307.468 212.447 C 310.484 212.447 312.979 209.979 312.979 206.919 C 312.979 203.88 310.484 201.387 307.468 201.387 L 307.468 201.387 Z" stroke-linecap="round" />
</g>
		<g transform="matrix(1 0 0 1 134.17 65.68)" id="Fill-5"  >
<path style="stroke: none; stroke-width: 1; stroke-dasharray: none; stroke-linecap: butt; stroke-dashoffset: 0; stroke-linejoin: miter; stroke-miterlimit: 4; fill: rgb(10,11,9); fill-rule: evenodd; opacity: 1;" vector-effect="non-scaling-stroke"  transform=" translate(-307.69, -207.01)" d="M 307.583 206.714 L 306.016 206.714 L 306.016 204.427 L 307.583 204.427 C 308.399 204.427 309.124 204.535 309.1 205.535 C 309.077 206.556 308.422 206.714 307.583 206.714 Z M 309.893 208.299 C 309.874 207.894 309.802 207.598 309.688 207.416 C 309.578 207.259 309.397 207.121 309.124 207.054 C 309.758 206.762 310.05 206.194 310.05 205.512 C 310.05 205.125 309.985 204.81 309.83 204.535 C 309.397 203.697 308.533 203.628 307.741 203.628 L 305.111 203.628 L 305.111 210.389 L 306.016 210.389 L 306.016 207.507 L 307.514 207.507 C 307.539 207.507 307.539 207.507 307.559 207.507 C 308.15 207.507 308.533 207.573 308.693 207.711 C 308.851 207.846 308.966 208.142 308.987 208.596 L 309.034 209.455 C 309.034 209.707 309.077 210.16 309.214 210.389 L 310.259 210.389 C 310.079 210.113 310.007 209.774 309.963 209.436 L 309.893 208.299 L 309.893 208.299 Z" stroke-linecap="round" />
</g>
</g>
</g>
</svg>